# xmcd
#
# Track frame offsets: 
#        150
#        11618
#        32768
#        45188
#        61695
#        74555
#        87498
#        97593
#        115335
#        129733
#        151195
#
# Disc length: 2246 seconds
#
# Revision: 4
# Processed by: cddbd v1.5.2PL0 Copyright (c) Steve Scherf et al.
# Submitted via: ExactAudioCopyFreeDBPlugin 1.0
#
DISCID=8108c40b
DTITLE=Sven Zetterberg And The Chicago Express - Watch Your Step!
DYEAR=1991
DGENRE=Blues
TTITLE0=Thaw-Out
TTITLE1=Will It Be Me Or Him?
TTITLE2=My Kind Of Baby
TTITLE3=Cry Before I Go
TTITLE4=Move Or Stay
TTITLE5=I Don't Play
TTITLE6=Loose Screews
TTITLE7=Big Bird
TTITLE8=No More Chances
TTITLE9=Nine Pound Steel
TTITLE10=Whiskey Heaven
EXTD=
EXTT0=
EXTT1=
EXTT2=
EXTT3=
EXTT4=
EXTT5=
EXTT6=
EXTT7=
EXTT8=
EXTT9=
EXTT10=
PLAYORDER=
